<svg xmlns="http://www.w3.org/2000/svg" width="26" height="26" viewBox="0 0 26 26"><g><g><path fill="#00e5ff" d="M25.911 5.131v17.753a3.029 3.029 0 0 1-3.026 3.026H3.115a3.029 3.029 0 0 1-3.026-3.026V5.131a3.03 3.03 0 0 1 3.026-3.025h1.21V.088h2.018v2.018h13.314V.088h2.018v2.018h1.21a3.03 3.03 0 0 1 3.026 3.025zm-23.805 0v2.42h21.788v-2.42a1.01 1.01 0 0 0-1.009-1.008h-1.21V6.14h-2.018V4.123H6.343V6.14H4.325V4.123h-1.21a1.01 1.01 0 0 0-1.009 1.008zm21.788 17.753V9.57H2.106v13.315a1.01 1.01 0 0 0 1.009 1.009h19.77a1.01 1.01 0 0 0 1.009-1.009zM3.922 11.688h2.017v2.017H3.922zm4.035 0h2.017v2.017H7.957zm4.034 0h2.018v2.017H11.99zm4.035 0h2.017v2.017h-2.017zm4.035 0h2.017v2.017h-2.017zM3.92 15.723H5.94v2.017H3.922zm4.036 0h2.017v2.017H7.957zm4.034 0h2.018v2.017H11.99zm4.035 0h2.017v2.017h-2.017zM3.922 19.758h2.017v2.017H3.922zm4.035 0h2.017v2.017H7.957zm4.034 0h2.018v2.017H11.99zm4.035 0h2.017v2.017h-2.017zm4.035-4.035h2.017v2.017h-2.017z"/></g></g></svg>