<svg xmlns="http://www.w3.org/2000/svg" width="10.031" height="8.97" viewBox="0 0 10.031 8.97">
  <defs>
    <style>
      .cls-1 {
        fill: #fff;
        fill-rule: evenodd;
      }
    </style>
  </defs>
  <path id="V" class="cls-1" d="M583.213,1813.58a0.955,0.955,0,0,1,1.176,0l2.9,3.17a0.635,0.635,0,0,1,0,1,0.955,0.955,0,0,1-1.176,0l-2.9-3.17A0.636,0.636,0,0,1,583.213,1813.58Zm3.425,4.19a0.928,0.928,0,0,0,1.176,0l4.914-7.59a0.635,0.635,0,0,0,0-1,0.955,0.955,0,0,0-1.176,0l-4.914,7.59A0.635,0.635,0,0,0,586.638,1817.77Z" transform="translate(-582.969 -1809)"/>
</svg>
